<svg width="3508" height="1008" viewBox="0 0 3508 1008" fill="none" xmlns="http://www.w3.org/2000/svg">
<path d="M3217.22 0H3507.97C3507.97 53.9925 3482.49 102.955 3439.85 138.335C3397.21 173.799 3337.32 195.681 3268.44 195.681H2139.94V0H3175.09" fill="white"/>
<path d="M2977.69 551.579V1008H2781.48V649.42C2781.48 604.482 2763.23 563.736 2733.63 534.224C2704.02 504.713 2663.15 486.436 2617.98 486.436H2139.94V290.839H2716.13C2860.54 290.839 2977.69 407.543 2977.69 551.579Z" fill="white"/>
<path d="M2686.02 693.1V777.274H2434.22C2380.14 777.274 2336.23 821.038 2336.23 874.947V1008H2139.94V842.417C2139.94 698.465 2257.09 581.677 2401.5 581.677H2574.25C2635.98 581.677 2686.02 631.562 2686.02 693.1Z" fill="white"/>
<path d="M123.465 69.2513H0V0H324.725V69.2513H201.261V414.25H123.465V69.2513Z" fill="white"/>
<path d="M287.888 333.765C287.888 269.88 338.35 251.519 394.7 243.806L452.311 236.092C482.588 231.984 491.503 226.619 491.503 210.689V204.15C491.503 166.841 468.963 155.607 435.742 155.607C402.521 155.607 375.776 166.841 375.776 200.545V207.084H304.54V193.502C304.54 133.725 345.499 100.608 437.509 100.608C529.518 100.608 566.356 133.138 566.356 201.215V414.251H493.354V359.252H490.41C483.85 376.439 456.011 420.204 387.13 420.204C334.902 420.204 287.972 395.387 287.972 333.849L287.888 333.765ZM491.503 307.691V268.622C487.382 275.748 472.496 279.27 455.254 281.617L406.558 289.33C373.926 294.025 363.834 308.865 363.834 327.226C363.834 350.868 379.897 365.121 411.941 365.121C460.637 365.121 491.503 332.592 491.503 307.691Z" fill="white"/>
<path d="M701.596 258.559L599.493 106.474H682L744.909 204.147L807.23 106.474H889.736L787.634 258.559L895.708 414.164H813.202L744.909 313.557L676.028 414.164H594.111L701.512 258.559H701.596Z" fill="white"/>
<path d="M929.601 106.476H1005.55V150.827C1020.35 121.819 1056.01 100.524 1101.09 100.524C1167.61 100.524 1237 147.893 1237 260.321C1237 372.75 1167.53 420.119 1101.09 420.119C1056.01 420.119 1020.35 398.824 1005.55 369.816V526.595H929.601V106.476ZM1165.85 260.405C1165.85 194.088 1126.07 163.99 1083.34 163.99C1040.62 163.99 1002.01 194.172 1002.01 260.405C1002.01 326.638 1041.8 356.82 1083.34 356.82C1124.89 356.82 1165.85 326.638 1165.85 260.405Z" fill="white"/>
<path d="M1271.48 0H1347.43V414.25H1271.48V0Z" fill="white"/>
<path d="M1381.32 333.765C1381.32 269.88 1431.78 251.519 1488.13 243.806L1545.75 236.092C1576.02 231.984 1584.94 226.619 1584.94 210.689V204.15C1584.94 166.841 1562.4 155.607 1529.18 155.607C1495.96 155.607 1469.21 166.841 1469.21 200.545V207.084H1397.97V193.502C1397.97 133.725 1438.93 100.608 1530.94 100.608C1622.95 100.608 1659.79 133.138 1659.79 201.215V414.251H1586.79V359.252H1583.84C1577.28 376.439 1549.45 420.204 1480.57 420.204C1428.34 420.204 1381.41 395.387 1381.41 333.849L1381.32 333.765ZM1584.94 307.691V268.622C1580.82 275.748 1565.93 279.27 1548.69 281.617L1499.99 289.33C1467.36 294.025 1457.27 308.865 1457.27 327.226C1457.27 350.868 1473.33 365.121 1505.38 365.121C1554.07 365.121 1584.94 332.592 1584.94 307.691Z" fill="white"/>
<path d="M1859.12 163.319C1817.57 163.319 1787.29 188.136 1787.29 238.439V414.167H1711.35V106.476H1787.29V169.775H1789.65C1795.62 143.114 1825.22 100.524 1890.57 100.524C1951.13 100.524 1997.97 137.245 1997.97 220.665V414.167H1922.03V238.439C1922.03 188.136 1900.08 163.319 1859.12 163.319Z" fill="white"/>
<path d="M152.565 581.927H252.312L404.876 996.177H322.37L292.682 911.583H111.606L81.9173 996.177H0L152.565 581.927ZM272.413 853.567L204.709 661.826H199.999L132.296 853.567H272.413Z" fill="white"/>
<path d="M400.083 842.251C400.083 729.823 469.552 682.453 535.995 682.453C581.074 682.453 616.734 703.749 631.537 732.757V581.846H707.482V996.096H631.537V951.745C616.734 980.754 581.074 1002.05 535.995 1002.05C469.468 1002.05 400.083 954.68 400.083 842.251ZM635.153 842.251C635.153 775.934 595.372 745.836 553.825 745.836C512.277 745.836 471.319 776.018 471.319 842.251C471.319 908.484 511.1 938.666 553.825 938.666C596.549 938.666 635.153 908.484 635.153 842.251Z" fill="white"/>
<path d="M733.051 688.405H810.258L893.353 923.909H896.297L979.391 688.405H1057.19L942.638 996.095H847.096L733.135 688.405H733.051Z" fill="white"/>
<path d="M1076.78 602.637C1076.78 578.408 1096.97 560.047 1120.1 560.047C1143.23 560.047 1162.82 578.408 1162.82 602.637C1162.82 626.867 1142.64 645.228 1120.1 645.228C1097.56 645.228 1076.78 626.867 1076.78 602.637ZM1082.17 688.405H1158.11V996.095H1082.17V688.405Z" fill="white"/>
<path d="M1188.98 899.092H1256.68C1260.8 931.622 1285.78 944.617 1321.36 944.617C1353.99 944.617 1377.12 933.382 1377.12 907.308C1377.12 888.36 1364.67 878.887 1340.87 874.192L1283.85 861.783C1221.53 847.615 1197.22 815.001 1197.22 773.584C1197.22 715.568 1247.09 682.451 1321.27 682.451C1399.66 682.451 1444.15 719.76 1445.33 784.819H1382.42C1377.71 751.116 1355.08 739.881 1321.86 739.881C1288.64 739.881 1270.81 751.116 1270.81 772.411C1270.81 790.185 1283.26 801.419 1308.24 806.114L1367.03 819.109C1415.72 830.344 1455.5 851.639 1455.5 905.464C1455.5 973.541 1392.59 1001.88 1320.77 1001.88C1241.21 1001.88 1189.57 968.175 1188.98 898.924V899.092Z" fill="white"/>
<path d="M1471.57 842.249C1471.57 730.994 1546.92 682.451 1624.72 682.451C1702.52 682.451 1777.87 730.994 1777.87 842.249C1777.87 953.504 1701.93 1002.05 1624.72 1002.05C1547.51 1002.05 1471.57 953.504 1471.57 842.249ZM1705.96 842.249C1705.96 775.345 1669.13 745.834 1624.64 745.834C1580.15 745.834 1542.72 775.429 1542.72 842.249C1542.72 909.069 1579.56 938.664 1624.64 938.664C1669.72 938.664 1705.96 909.069 1705.96 842.249Z" fill="white"/>
<path d="M1811.68 688.403H1887.63V761.762H1889.4C1899.49 720.346 1928.59 684.798 1980.82 684.798C1987.97 684.798 1996.21 685.385 2004.53 687.732V751.618C1995.62 750.444 1988.47 749.857 1980.82 749.857C1929.77 749.857 1887.63 780.626 1887.63 852.812V996.009H1811.68V688.319V688.403Z" fill="white"/>
</svg>
